<svg xmlns:xlink="http://www.w3.org/1999/xlink" xmlns="http://www.w3.org/2000/svg" width="25" height="25" viewBox="0 0 25 26" fill="none"><circle cx="12.5" cy="13" r="12.5" fill="#F0F0F2"></circle><path d="M13.4968 8H15.659L11.8616 12.9777L15.7449 17.9555H13.4753L9.46307 13.1786L13.4968 8Z" fill="black"></path><path d="M10.3546 8H11.8655L9.56139 13.1786L11.7581 17.9555H10.1183L8.15795 13.134L10.3546 8Z" fill="black"></path><path d="M8.23294 8H9.09259L8.17031 13.134L9.09259 17.9555H8.23294L7.33216 13.134L8.23294 8Z" fill="black"></path><path d="M7 8H7.48192V17.9555H7V8Z" fill="black"></path><path d="M19 16.8842C19 17.5004 18.519 18 17.9256 18C17.3322 18 16.8511 17.5004 16.8511 16.8842C16.8511 16.2679 17.3322 15.7683 17.9256 15.7683C18.519 15.7683 19 16.2679 19 16.8842Z" fill="black"></path></svg>