<svg xmlns:xlink="http://www.w3.org/1999/xlink" xmlns="http://www.w3.org/2000/svg" width="25" height="26" viewBox="0 0 25 26" fill="none"><circle opacity="0.7" cx="12.5" cy="13" r="12.5" fill="#F0F0F2"></circle><path d="M13.7505 11.446H11.2495C11.137 11.6862 10.8761 11.9437 10.5663 12.2496C9.84005 12.9665 8.84435 13.9495 8.85693 15.5991C8.87205 17.5552 10.3322 17.8777 12.4942 17.8777H12.5059C14.6677 17.8777 16.1279 17.5552 16.143 15.5991C16.1556 13.9494 15.1599 12.9664 14.4337 12.2495C14.1238 11.9436 13.8631 11.6862 13.7505 11.446Z" fill="#121212"></path><path d="M11.2988 10.1715H13.7321C13.8962 9.61796 14.1045 9.33526 14.2403 9.15085C14.4047 8.92763 14.4631 8.84843 14.2085 8.60712C13.7438 8.1663 12.1711 7.86842 11.14 8.43186C10.4956 8.78396 10.5772 8.89749 10.8175 9.232C10.9616 9.43263 11.1629 9.71276 11.2988 10.1715Z" fill="#121212"></path><path d="M10.7547 10.8098C10.7547 10.6002 10.9246 10.4303 11.1342 10.4303H13.7913C14.0009 10.4303 14.1708 10.6002 14.1708 10.8098C14.1708 11.0195 14.0009 11.1894 13.7913 11.1894H11.1342C10.9246 11.1894 10.7547 11.0195 10.7547 10.8098Z" fill="#121212"></path></svg>