<svg xmlns:xlink="http://www.w3.org/1999/xlink" xmlns="http://www.w3.org/2000/svg" width="37" height="37" viewBox="0 0 37 37" fill="none"><circle opacity="0.7" cx="18.5" cy="18.5" r="18.5" fill="#EFF1FF"></circle><path d="M20.6299 15.4161H16.3741C16.1826 15.8248 15.7388 16.2629 15.2116 16.7834C13.9758 18.0034 12.2815 19.676 12.3029 22.4831C12.3287 25.8114 14.8133 26.3602 18.4921 26.3602H18.5121C22.1906 26.3602 24.6753 25.8114 24.701 22.4831C24.7224 19.6759 23.0281 18.0032 21.7923 16.7833C21.2651 16.2628 20.8214 15.8247 20.6299 15.4161Z" fill="#40196D"></path><path d="M16.4581 13.2474H20.5986C20.8778 12.3055 21.2322 11.8244 21.4633 11.5106C21.7431 11.1308 21.8424 10.996 21.4093 10.5854C20.6185 9.83532 17.9424 9.32845 16.1879 10.2872C15.0913 10.8863 15.2301 11.0795 15.639 11.6487C15.8843 11.9901 16.2267 12.4668 16.4581 13.2474Z" fill="#40196D"></path><path d="M15.5321 14.3336C15.5321 13.9769 15.8213 13.6877 16.178 13.6877H20.6992C21.0559 13.6877 21.3451 13.9769 21.3451 14.3336C21.3451 14.6903 21.0559 14.9795 20.6992 14.9795H16.178C15.8213 14.9795 15.5321 14.6903 15.5321 14.3336Z" fill="#40196D"></path></svg>